<?xml version="1.0" encoding="utf-8"?>
<!-- Generator: Adobe Illustrator 21.0.2, SVG Export Plug-In . SVG Version: 6.00 Build 0)  -->
<svg version="1.1" id="레이어_1" xmlns="http://www.w3.org/2000/svg" xmlns:xlink="http://www.w3.org/1999/xlink" x="0px"
	 y="0px" viewBox="0 0 36 28" style="enable-background:new 0 0 36 28;" xml:space="preserve">
<style type="text/css">
	.st0{fill:#313131;}
</style>
<path class="st0" d="M33.5,14.2l1-8.9c0-0.3-0.1-0.5-0.2-0.7c-0.2-0.2-0.4-0.3-0.7-0.3h-26c-0.1,0-0.2,0-0.3,0.1L6.9,3
	c0-0.1-1-2.9-4.5-2.9C1.9,0.1,1.5,0.5,1.5,1s0.4,0.8,0.8,0.8c2.2,0,2.9,1.7,2.9,1.7l5.5,17.1c-0.3-0.1-0.6-0.1-0.9-0.1
	c-2.1,0-3.7,1.7-3.7,3.7c0,2.1,1.7,3.7,3.7,3.7s3.7-1.7,3.7-3.7c0-0.2,0-0.3-0.1-0.5c0.3,0.1,0.7,0.1,1.1,0.1h11.2
	c0,0.1,0,0.3,0,0.4c0,2.1,1.7,3.7,3.7,3.7c2.1,0,3.7-1.7,3.7-3.7c0-2.1-1.7-3.7-3.7-3.7c-1.3,0-2.4,0.7-3.1,1.7H14.6
	c-1.7,0-2-1.2-2-1.4l-0.7-2.3L32.7,15C33.1,15,33.4,14.6,33.5,14.2z M29.5,22.4c1,0,1.9,0.8,1.9,1.9c0,1-0.8,1.9-1.9,1.9
	c-1,0-1.9-0.8-1.9-1.9C27.6,23.2,28.4,22.4,29.5,22.4z M9.8,26.2c-1,0-1.9-0.8-1.9-1.9c0-1,0.8-1.9,1.9-1.9s1.9,0.8,1.9,1.9
	C11.7,25.3,10.9,26.2,9.8,26.2z M31.7,13.3l-20.4,3.4L7.9,6.2h24.6L31.7,13.3z"/>
</svg>
