<?xml version="1.0" encoding="utf-8"?>
<!-- Generator: Adobe Illustrator 21.0.2, SVG Export Plug-In . SVG Version: 6.00 Build 0)  -->
<svg version="1.1" id="레이어_1" xmlns="http://www.w3.org/2000/svg" xmlns:xlink="http://www.w3.org/1999/xlink" x="0px"
	 y="0px" viewBox="0 0 24 28" style="enable-background:new 0 0 24 28;" xml:space="preserve">
<path d="M0.9,8.2h16.5c0.4,0,0.7-0.3,0.7-0.6V7.1c0-0.3-0.3-0.6-0.7-0.6H0.9c-0.4,0-0.7,0.3-0.7,0.6v0.6C0.2,8,0.5,8.2,0.9,8.2z"/>
<path d="M0.9,14.8h16.5c0.4,0,0.7-0.3,0.7-0.6v-0.6c0-0.3-0.3-0.6-0.7-0.6H0.9c-0.4,0-0.7,0.3-0.7,0.6v0.6
	C0.2,14.6,0.5,14.8,0.9,14.8z"/>
<path d="M0.9,21.4h16.5c0.4,0,0.7-0.3,0.7-0.6v-0.6c0-0.3-0.3-0.6-0.7-0.6H0.9c-0.4,0-0.7,0.3-0.7,0.6v0.6
	C0.2,21.2,0.5,21.4,0.9,21.4z"/>
<path d="M20.4,0H0.9C0.5,0,0.2,0.3,0.2,0.6v0.5c0,0.3,0.3,0.6,0.8,0.6h16.7c0,0,0,0,0,0c0,0,0,0,0,0h2.7c1,0,1.8,0.8,1.8,1.8v21
	c0,1-0.8,1.8-1.8,1.8H6c0,0,0,0,0,0H0.9c-0.4,0-0.8,0.3-0.8,0.6v0.5c0,0.3,0.3,0.6,0.8,0.6h16.7c0,0,0,0,0.1,0c0,0,0,0,0,0h2.7
	c1.9,0,3.4-1.6,3.4-3.5v-21C23.8,1.6,22.3,0,20.4,0z"/>
</svg>
