<?xml version="1.0" encoding="utf-8"?>
<!-- Generator: Adobe Illustrator 21.0.2, SVG Export Plug-In . SVG Version: 6.00 Build 0)  -->
<svg version="1.1" id="레이어_1" xmlns="http://www.w3.org/2000/svg" xmlns:xlink="http://www.w3.org/1999/xlink" x="0px"
	 y="0px" viewBox="0 0 15 19" style="enable-background:new 0 0 15 19;" xml:space="preserve">
<style type="text/css">
	.st0{fill:#FFFFFF;}
</style>
<g>
	<path class="st0" d="M12.7,0.5H2.3C1,0.5,0,1.6,0,2.9v13.3c0,1.3,1,2.3,2.3,2.3h10.3c1.3,0,2.3-1,2.3-2.3V2.9
		C15,1.6,14,0.5,12.7,0.5z M13.7,16.1c0,0.6-0.5,1-1,1H2.3c-0.6,0-1-0.5-1-1V2.9c0-0.6,0.5-1,1-1h10.3c0.6,0,1,0.5,1,1V16.1z"/>
	<path class="st0" d="M11,4.4H4.4C4,4.4,3.8,4.7,3.8,5v0.3c0,0.3,0.3,0.6,0.6,0.6H11c0.3,0,0.6-0.3,0.6-0.6V5
		C11.6,4.7,11.3,4.4,11,4.4z"/>
	<path class="st0" d="M11,8.7H4.4C4,8.7,3.8,9,3.8,9.3v0.3c0,0.3,0.3,0.6,0.6,0.6H11c0.3,0,0.6-0.3,0.6-0.6V9.3
		C11.6,9,11.3,8.7,11,8.7z"/>
	<path class="st0" d="M11,13.1H4.4c-0.3,0-0.6,0.3-0.6,0.6V14c0,0.3,0.3,0.6,0.6,0.6H11c0.3,0,0.6-0.3,0.6-0.6v-0.3
		C11.6,13.3,11.3,13.1,11,13.1z"/>
</g>
</svg>
