<?xml version="1.0" encoding="utf-8"?>
<!-- Generator: Adobe Illustrator 21.0.2, SVG Export Plug-In . SVG Version: 6.00 Build 0)  -->
<svg version="1.1" id="레이어_1" xmlns="http://www.w3.org/2000/svg" xmlns:xlink="http://www.w3.org/1999/xlink" x="0px"
	 y="0px" viewBox="0 0 17 20" style="enable-background:new 0 0 17 20;" xml:space="preserve">
<style type="text/css">
	.st0{stroke:#000000;stroke-width:0.25;stroke-miterlimit:10;}
</style>
<path class="st0" d="M12.8,2.6H4.2c-1,0-1.9,0.9-1.9,1.9v11c0,1,0.9,1.9,1.9,1.9h8.5c1,0,1.9-0.9,1.9-1.9v-11
	C14.7,3.5,13.9,2.6,12.8,2.6z M13.6,15.5c0,0.4-0.4,0.8-0.8,0.8H4.2c-0.4,0-0.8-0.4-0.8-0.8v-11c0-0.4,0.4-0.8,0.8-0.8h8.5
	c0.4,0,0.8,0.4,0.8,0.8L13.6,15.5L13.6,15.5z"/>
<path class="st0" d="M5.9,5.8h5.5c0.2,0,0.4,0.2,0.4,0.5v0.3c0,0.2-0.2,0.4-0.4,0.4H5.9c-0.3,0-0.4-0.2-0.4-0.5V6.3
	C5.5,6,5.6,5.8,5.9,5.8z"/>
<path class="st0" d="M5.9,9.4h5.5c0.3,0,0.4,0.2,0.4,0.4v0.3c0,0.3-0.2,0.4-0.4,0.4H5.9c-0.3,0-0.4-0.2-0.4-0.4V9.9
	C5.5,9.6,5.6,9.4,5.9,9.4z"/>
<path class="st0" d="M5.9,13h5.5c0.3,0,0.4,0.2,0.4,0.4v0.3c0,0.3-0.2,0.4-0.4,0.4H5.9c-0.3,0-0.4-0.2-0.4-0.4v-0.3
	C5.5,13.1,5.6,13,5.9,13z"/>
</svg>
