<?xml version="1.0" encoding="utf-8"?>
<!-- Generator: Adobe Illustrator 21.0.2, SVG Export Plug-In . SVG Version: 6.00 Build 0)  -->
<svg version="1.1" id="레이어_1" xmlns="http://www.w3.org/2000/svg" xmlns:xlink="http://www.w3.org/1999/xlink" x="0px"
	 y="0px" viewBox="0 0 22 20" style="enable-background:new 0 0 22 20;" xml:space="preserve">
<style type="text/css">
	.st0{fill:#C10C2A;}
</style>
<path class="st0" d="M7.1,6.6H7c-0.4,0-0.7-0.3-0.7-0.7V3.6c0-0.4,0.3-0.7,0.7-0.7h0.1c0.4,0,0.7,0.3,0.7,0.7v2.3
	C7.8,6.3,7.5,6.6,7.1,6.6z"/>
<path class="st0" d="M7.1,11.8H7c-0.4,0-0.7-0.3-0.7-0.7V8.8c0-0.4,0.3-0.7,0.7-0.7h0.1c0.4,0,0.7,0.3,0.7,0.7v2.3
	C7.8,11.5,7.5,11.8,7.1,11.8z"/>
<path class="st0" d="M7.1,17H7c-0.4,0-0.7-0.3-0.7-0.7V14c0-0.4,0.3-0.7,0.7-0.7h0.1c0.4,0,0.7,0.3,0.7,0.7v2.3
	C7.8,16.7,7.5,17,7.1,17z"/>
<path class="st0" d="M20.9,7.9c0.4,0,0.7-0.4,0.7-0.7V3.1c0-0.4-0.3-0.8-0.8-0.8h-9.8h-0.1H1.2c-0.4,0-0.8,0.3-0.8,0.8v4.1
	c0,0.4,0.3,0.7,0.7,0.7c0.2,0,1.3,0.2,1.3,1.9c0,1.7-1,1.8-1.3,1.9c-0.4,0-0.7,0.4-0.7,0.7v4.4c0,0.4,0.3,0.8,0.8,0.8h9.8h0.1h9.8
	c0.4,0,0.8-0.3,0.8-0.8v-4.4c0-0.4-0.3-0.7-0.7-0.7c-0.2,0-1.3-0.2-1.3-1.9C19.6,8.1,20.7,7.9,20.9,7.9z M20.1,6.5
	c-0.9,0.3-2,1.2-2,3.2s1.1,2.9,2,3.2v3.1h-9h-0.1h-9V13c0.9-0.3,2-1.2,2-3.2s-1.1-2.9-2-3.2V3.8h9h0.1h9V6.5z"/>
</svg>
