<?xml version="1.0" encoding="utf-8"?>
<!-- Generator: Adobe Illustrator 21.0.2, SVG Export Plug-In . SVG Version: 6.00 Build 0)  -->
<svg version="1.1" id="레이어_1" xmlns="http://www.w3.org/2000/svg" xmlns:xlink="http://www.w3.org/1999/xlink" x="0px"
	 y="0px" viewBox="0 0 17 20" style="enable-background:new 0 0 17 20;" xml:space="preserve">
<style type="text/css">
	.st0{fill:#C10C2A;}
</style>
<g>
	<path class="st0" d="M11.8,6.2c0-0.3-0.3-0.6-0.6-0.6H5.9c-0.3,0-0.6,0.3-0.6,0.6v0.3c0,0.3,0.3,0.6,0.6,0.6h5.3
		c0.3,0,0.6-0.3,0.6-0.6V6.2z"/>
	<path class="st0" d="M11.8,9.7c0-0.3-0.3-0.6-0.6-0.6H5.9c-0.3,0-0.6,0.3-0.6,0.6V10c0,0.3,0.3,0.6,0.6,0.6h5.3
		c0.3,0,0.6-0.3,0.6-0.6V9.7z"/>
	<path class="st0" d="M11.2,12.6H5.9c-0.3,0-0.6,0.3-0.6,0.6v0.3c0,0.3,0.3,0.6,0.6,0.6h5.3c0.3,0,0.6-0.3,0.6-0.6v-0.3
		C11.8,12.9,11.5,12.6,11.2,12.6z"/>
	<path class="st0" d="M3.7,14.7V4.5c0-0.4,0.3-0.7,0.7-0.7h7L11.1,4c-0.1,0.1-0.2,0.3-0.2,0.5c0,0.2,0.1,0.4,0.2,0.5
		c0.3,0.3,0.8,0.3,1,0l1.5-1.5c0.1-0.1,0.2-0.3,0.2-0.5c0-0.2-0.1-0.4-0.2-0.5l-1.4-1.4c-0.3-0.3-0.8-0.3-1,0
		c-0.1,0.1-0.2,0.3-0.2,0.5c0,0.2,0.1,0.4,0.2,0.5l0.3,0.3H4.4c-1.1,0-2,0.9-2,2v10.2c0,0.3,0.3,0.6,0.6,0.6h0.2
		C3.4,15.3,3.7,15,3.7,14.7z"/>
	<path class="st0" d="M14.1,4.8h-0.2c-0.3,0-0.6,0.3-0.6,0.6v10.1c0,0.4-0.3,0.7-0.7,0.7h-7L5.9,16c0.3-0.3,0.3-0.8,0-1
		c-0.1-0.1-0.3-0.2-0.5-0.2c0,0,0,0,0,0c-0.2,0-0.4,0.1-0.5,0.2l-1.4,1.4l0,0c-0.1,0.1-0.2,0.3-0.2,0.5c0,0.2,0.1,0.4,0.2,0.5
		l1.4,1.4C5,19,5.2,19.1,5.4,19.1c0,0,0,0,0,0c0.2,0,0.4-0.1,0.5-0.2c0.1-0.1,0.2-0.3,0.2-0.5S6,18,5.9,17.8l-0.3-0.3h7.1
		c1.1,0,2-0.9,2-2V5.3C14.6,5,14.4,4.8,14.1,4.8z"/>
</g>
</svg>
